<mxfile host="app.diagrams.net" modified="2023-04-02T15:04:25.493Z" agent="Mozilla/5.0 (Windows NT 10.0; Win64; x64) AppleWebKit/537.36 (KHTML, like Gecko) Chrome/111.0.0.0 Safari/537.36" etag="p1XPwbHRrtxw5CpqKA1S" version="21.1.2" type="github">
  <diagram name="Page-1" id="D_NGjXy_jByFbbjeRkrl">
    <mxGraphModel dx="880" dy="518" grid="1" gridSize="10" guides="1" tooltips="1" connect="1" arrows="1" fold="1" page="1" pageScale="1" pageWidth="827" pageHeight="1169" math="0" shadow="0">
      <root>
        <mxCell id="0" />
        <mxCell id="1" parent="0" />
        <mxCell id="tllE8czw2BVMGdOKm_vO-1" value="Start" style="ellipse;whiteSpace=wrap;html=1;" vertex="1" parent="1">
          <mxGeometry x="340" y="50" width="130" height="70" as="geometry" />
        </mxCell>
        <mxCell id="tllE8czw2BVMGdOKm_vO-2" value="Read NumA NumB &lt;br&gt;sum" style="shape=parallelogram;perimeter=parallelogramPerimeter;whiteSpace=wrap;html=1;fixedSize=1;" vertex="1" parent="1">
          <mxGeometry x="340" y="150" width="130" height="70" as="geometry" />
        </mxCell>
        <mxCell id="tllE8czw2BVMGdOKm_vO-37" value="" style="edgeStyle=orthogonalEdgeStyle;rounded=0;orthogonalLoop=1;jettySize=auto;html=1;" edge="1" parent="1" source="tllE8czw2BVMGdOKm_vO-3" target="tllE8czw2BVMGdOKm_vO-28">
          <mxGeometry relative="1" as="geometry" />
        </mxCell>
        <mxCell id="tllE8czw2BVMGdOKm_vO-3" value="Square 1=Num A x Num A&lt;br&gt;Square 2= Num B x Num B" style="rounded=0;whiteSpace=wrap;html=1;direction=south;" vertex="1" parent="1">
          <mxGeometry x="360" y="270" width="100" height="70" as="geometry" />
        </mxCell>
        <mxCell id="tllE8czw2BVMGdOKm_vO-22" value="" style="endArrow=classic;html=1;rounded=0;entryX=0.5;entryY=0;entryDx=0;entryDy=0;" edge="1" parent="1" target="tllE8czw2BVMGdOKm_vO-2">
          <mxGeometry width="50" height="50" relative="1" as="geometry">
            <mxPoint x="405" y="120" as="sourcePoint" />
            <mxPoint x="400" y="150" as="targetPoint" />
            <Array as="points" />
          </mxGeometry>
        </mxCell>
        <mxCell id="tllE8czw2BVMGdOKm_vO-25" value="" style="endArrow=classic;html=1;rounded=0;exitX=0.5;exitY=1;exitDx=0;exitDy=0;entryX=0;entryY=0.55;entryDx=0;entryDy=0;entryPerimeter=0;" edge="1" parent="1" source="tllE8czw2BVMGdOKm_vO-2" target="tllE8czw2BVMGdOKm_vO-3">
          <mxGeometry width="50" height="50" relative="1" as="geometry">
            <mxPoint x="405" y="230" as="sourcePoint" />
            <mxPoint x="410" y="270" as="targetPoint" />
          </mxGeometry>
        </mxCell>
        <mxCell id="tllE8czw2BVMGdOKm_vO-38" value="" style="edgeStyle=orthogonalEdgeStyle;rounded=0;orthogonalLoop=1;jettySize=auto;html=1;" edge="1" parent="1" source="tllE8czw2BVMGdOKm_vO-28" target="tllE8czw2BVMGdOKm_vO-36">
          <mxGeometry relative="1" as="geometry" />
        </mxCell>
        <mxCell id="tllE8czw2BVMGdOKm_vO-28" value="Write sum" style="shape=parallelogram;perimeter=parallelogramPerimeter;whiteSpace=wrap;html=1;fixedSize=1;" vertex="1" parent="1">
          <mxGeometry x="340" y="380" width="140" height="60" as="geometry" />
        </mxCell>
        <mxCell id="tllE8czw2BVMGdOKm_vO-36" value="End" style="ellipse;whiteSpace=wrap;html=1;" vertex="1" parent="1">
          <mxGeometry x="350" y="480" width="120" height="80" as="geometry" />
        </mxCell>
      </root>
    </mxGraphModel>
  </diagram>
</mxfile>
